<mxfile host="app.diagrams.net" modified="2024-03-12T15:36:26.671Z" agent="Mozilla/5.0 (Windows NT 10.0; Win64; x64) AppleWebKit/537.36 (KHTML, like Gecko) Chrome/108.0.0.0 Safari/537.36" etag="-VPY59zAyWA2B4sAqp4I" version="24.0.5" type="device">
  <diagram name="Сторінка-1" id="u-erOyzAw-AdUZoEKJVi">
    <mxGraphModel dx="5165" dy="1291" grid="1" gridSize="10" guides="1" tooltips="1" connect="1" arrows="1" fold="1" page="1" pageScale="1" pageWidth="2336" pageHeight="1654" math="0" shadow="0">
      <root>
        <mxCell id="0" />
        <mxCell id="1" parent="0" />
        <mxCell id="d8pbvXpJQmF01_iz9o_H-11" style="edgeStyle=orthogonalEdgeStyle;rounded=0;orthogonalLoop=1;jettySize=auto;html=1;entryX=0.5;entryY=0;entryDx=0;entryDy=0;strokeWidth=4;fillColor=#f8cecc;strokeColor=#b85450;" parent="1" source="d8pbvXpJQmF01_iz9o_H-2" target="d8pbvXpJQmF01_iz9o_H-3" edge="1">
          <mxGeometry relative="1" as="geometry" />
        </mxCell>
        <mxCell id="d8pbvXpJQmF01_iz9o_H-2" value="&lt;font face=&quot;Times New Roman&quot; style=&quot;font-size: 40px;&quot;&gt;&lt;b&gt;Формування вимог&lt;/b&gt;&lt;/font&gt;" style="rounded=0;whiteSpace=wrap;html=1;" parent="1" vertex="1">
          <mxGeometry x="-1942" y="14" width="380" height="150" as="geometry" />
        </mxCell>
        <mxCell id="d8pbvXpJQmF01_iz9o_H-13" style="edgeStyle=orthogonalEdgeStyle;rounded=0;orthogonalLoop=1;jettySize=auto;html=1;strokeWidth=4;fillColor=#f8cecc;strokeColor=#b85450;" parent="1" source="d8pbvXpJQmF01_iz9o_H-3" target="d8pbvXpJQmF01_iz9o_H-9" edge="1">
          <mxGeometry relative="1" as="geometry" />
        </mxCell>
        <mxCell id="5eMV0TgO5T3iDaGdaBF1-1" style="edgeStyle=orthogonalEdgeStyle;rounded=0;orthogonalLoop=1;jettySize=auto;html=1;exitX=1;exitY=0.5;exitDx=0;exitDy=0;entryX=0;entryY=0.5;entryDx=0;entryDy=0;strokeWidth=4;fillColor=#d5e8d4;strokeColor=#82b366;" parent="1" source="d8pbvXpJQmF01_iz9o_H-3" target="d8pbvXpJQmF01_iz9o_H-30" edge="1">
          <mxGeometry relative="1" as="geometry" />
        </mxCell>
        <mxCell id="d8pbvXpJQmF01_iz9o_H-3" value="&lt;font face=&quot;Times New Roman&quot; style=&quot;font-size: 39px;&quot;&gt;&lt;b&gt;Перший інкремент&lt;/b&gt;&lt;/font&gt;" style="rounded=0;whiteSpace=wrap;html=1;" parent="1" vertex="1">
          <mxGeometry x="-1942" y="284" width="380" height="150" as="geometry" />
        </mxCell>
        <mxCell id="d8pbvXpJQmF01_iz9o_H-8" value="&lt;span style=&quot;font-family: &amp;quot;Times New Roman&amp;quot;; font-size: 39px;&quot;&gt;Експлуатація&lt;/span&gt;" style="rounded=0;whiteSpace=wrap;html=1;" parent="1" vertex="1">
          <mxGeometry x="-1942" y="1504" width="380" height="150" as="geometry" />
        </mxCell>
        <mxCell id="d8pbvXpJQmF01_iz9o_H-23" style="edgeStyle=orthogonalEdgeStyle;rounded=0;orthogonalLoop=1;jettySize=auto;html=1;strokeWidth=4;fillColor=#f8cecc;strokeColor=#b85450;" parent="1" source="d8pbvXpJQmF01_iz9o_H-9" edge="1">
          <mxGeometry relative="1" as="geometry">
            <mxPoint x="-1752" y="744" as="targetPoint" />
          </mxGeometry>
        </mxCell>
        <mxCell id="d8pbvXpJQmF01_iz9o_H-9" value="&lt;font style=&quot;font-size: 39px;&quot; face=&quot;Times New Roman&quot;&gt;Аналіз&lt;/font&gt;" style="rounded=0;whiteSpace=wrap;html=1;" parent="1" vertex="1">
          <mxGeometry x="-1942" y="514" width="380" height="150" as="geometry" />
        </mxCell>
        <mxCell id="d8pbvXpJQmF01_iz9o_H-24" style="edgeStyle=orthogonalEdgeStyle;rounded=0;orthogonalLoop=1;jettySize=auto;html=1;strokeWidth=4;fillColor=#f8cecc;strokeColor=#b85450;" parent="1" source="d8pbvXpJQmF01_iz9o_H-25" target="d8pbvXpJQmF01_iz9o_H-27" edge="1">
          <mxGeometry relative="1" as="geometry" />
        </mxCell>
        <mxCell id="d8pbvXpJQmF01_iz9o_H-25" value="&lt;font face=&quot;Times New Roman&quot; style=&quot;font-size: 39px;&quot;&gt;Проєктування&lt;/font&gt;" style="rounded=0;whiteSpace=wrap;html=1;" parent="1" vertex="1">
          <mxGeometry x="-1942" y="744" width="380" height="150" as="geometry" />
        </mxCell>
        <mxCell id="d8pbvXpJQmF01_iz9o_H-26" style="edgeStyle=orthogonalEdgeStyle;rounded=0;orthogonalLoop=1;jettySize=auto;html=1;strokeWidth=4;fillColor=#f8cecc;strokeColor=#b85450;" parent="1" source="d8pbvXpJQmF01_iz9o_H-27" edge="1">
          <mxGeometry relative="1" as="geometry">
            <mxPoint x="-1752" y="1204" as="targetPoint" />
          </mxGeometry>
        </mxCell>
        <mxCell id="d8pbvXpJQmF01_iz9o_H-27" value="&lt;span style=&quot;font-family: &amp;quot;Times New Roman&amp;quot;; font-size: 39px;&quot;&gt;Кодування&lt;/span&gt;" style="rounded=0;whiteSpace=wrap;html=1;" parent="1" vertex="1">
          <mxGeometry x="-1942" y="974" width="380" height="150" as="geometry" />
        </mxCell>
        <mxCell id="d8pbvXpJQmF01_iz9o_H-53" style="edgeStyle=orthogonalEdgeStyle;rounded=0;orthogonalLoop=1;jettySize=auto;html=1;entryX=0;entryY=0.5;entryDx=0;entryDy=0;strokeWidth=4;fillColor=#f8cecc;strokeColor=#b85450;" parent="1" source="d8pbvXpJQmF01_iz9o_H-28" target="d8pbvXpJQmF01_iz9o_H-27" edge="1">
          <mxGeometry relative="1" as="geometry">
            <Array as="points">
              <mxPoint x="-2150" y="1314" />
              <mxPoint x="-2150" y="1049" />
            </Array>
          </mxGeometry>
        </mxCell>
        <mxCell id="d8pbvXpJQmF01_iz9o_H-54" style="edgeStyle=orthogonalEdgeStyle;rounded=0;orthogonalLoop=1;jettySize=auto;html=1;entryX=1;entryY=0.5;entryDx=0;entryDy=0;strokeWidth=4;fillColor=#f8cecc;strokeColor=#b85450;" parent="1" source="d8pbvXpJQmF01_iz9o_H-28" target="d8pbvXpJQmF01_iz9o_H-8" edge="1">
          <mxGeometry relative="1" as="geometry">
            <Array as="points">
              <mxPoint x="-1440" y="1314" />
              <mxPoint x="-1440" y="1579" />
            </Array>
          </mxGeometry>
        </mxCell>
        <mxCell id="d8pbvXpJQmF01_iz9o_H-55" value="&lt;font face=&quot;Times New Roman&quot; style=&quot;font-size: 31px;&quot;&gt;Успіх&lt;/font&gt;" style="edgeLabel;html=1;align=center;verticalAlign=middle;resizable=0;points=[];labelBackgroundColor=none;fontSize=31;" parent="d8pbvXpJQmF01_iz9o_H-54" vertex="1" connectable="0">
          <mxGeometry x="-0.6755" y="18" relative="1" as="geometry">
            <mxPoint x="1" y="-9" as="offset" />
          </mxGeometry>
        </mxCell>
        <mxCell id="d8pbvXpJQmF01_iz9o_H-28" value="&lt;font style=&quot;font-size: 36px;&quot; face=&quot;Times New Roman&quot;&gt;Тестування&lt;/font&gt;" style="rhombus;whiteSpace=wrap;html=1;" parent="1" vertex="1">
          <mxGeometry x="-1912" y="1204" width="320" height="220" as="geometry" />
        </mxCell>
        <mxCell id="d8pbvXpJQmF01_iz9o_H-29" style="edgeStyle=orthogonalEdgeStyle;rounded=0;orthogonalLoop=1;jettySize=auto;html=1;strokeWidth=4;" parent="1" source="d8pbvXpJQmF01_iz9o_H-30" target="d8pbvXpJQmF01_iz9o_H-33" edge="1">
          <mxGeometry relative="1" as="geometry" />
        </mxCell>
        <mxCell id="5eMV0TgO5T3iDaGdaBF1-2" style="edgeStyle=orthogonalEdgeStyle;rounded=0;orthogonalLoop=1;jettySize=auto;html=1;exitX=1;exitY=0.5;exitDx=0;exitDy=0;entryX=0;entryY=0.5;entryDx=0;entryDy=0;strokeWidth=4;fillColor=#d5e8d4;strokeColor=#82b366;" parent="1" source="d8pbvXpJQmF01_iz9o_H-30" target="d8pbvXpJQmF01_iz9o_H-40" edge="1">
          <mxGeometry relative="1" as="geometry" />
        </mxCell>
        <mxCell id="d8pbvXpJQmF01_iz9o_H-30" value="&lt;font face=&quot;Times New Roman&quot; style=&quot;font-size: 39px;&quot;&gt;Другий інкремент&lt;/font&gt;" style="rounded=0;whiteSpace=wrap;html=1;" parent="1" vertex="1">
          <mxGeometry x="-1250" y="284" width="380" height="150" as="geometry" />
        </mxCell>
        <mxCell id="d8pbvXpJQmF01_iz9o_H-31" value="&lt;span style=&quot;font-family: &amp;quot;Times New Roman&amp;quot;; font-size: 39px;&quot;&gt;Експлуатація&lt;/span&gt;" style="rounded=0;whiteSpace=wrap;html=1;" parent="1" vertex="1">
          <mxGeometry x="-1250" y="1504" width="380" height="150" as="geometry" />
        </mxCell>
        <mxCell id="d8pbvXpJQmF01_iz9o_H-32" style="edgeStyle=orthogonalEdgeStyle;rounded=0;orthogonalLoop=1;jettySize=auto;html=1;strokeWidth=4;" parent="1" source="d8pbvXpJQmF01_iz9o_H-33" edge="1">
          <mxGeometry relative="1" as="geometry">
            <mxPoint x="-1060" y="744" as="targetPoint" />
          </mxGeometry>
        </mxCell>
        <mxCell id="d8pbvXpJQmF01_iz9o_H-33" value="&lt;font style=&quot;font-size: 39px;&quot; face=&quot;Times New Roman&quot;&gt;Аналіз&lt;/font&gt;" style="rounded=0;whiteSpace=wrap;html=1;" parent="1" vertex="1">
          <mxGeometry x="-1250" y="514" width="380" height="150" as="geometry" />
        </mxCell>
        <mxCell id="d8pbvXpJQmF01_iz9o_H-34" style="edgeStyle=orthogonalEdgeStyle;rounded=0;orthogonalLoop=1;jettySize=auto;html=1;strokeWidth=4;" parent="1" source="d8pbvXpJQmF01_iz9o_H-35" target="d8pbvXpJQmF01_iz9o_H-37" edge="1">
          <mxGeometry relative="1" as="geometry" />
        </mxCell>
        <mxCell id="d8pbvXpJQmF01_iz9o_H-35" value="&lt;font face=&quot;Times New Roman&quot; style=&quot;font-size: 39px;&quot;&gt;Проєктування&lt;/font&gt;" style="rounded=0;whiteSpace=wrap;html=1;" parent="1" vertex="1">
          <mxGeometry x="-1250" y="744" width="380" height="150" as="geometry" />
        </mxCell>
        <mxCell id="d8pbvXpJQmF01_iz9o_H-36" style="edgeStyle=orthogonalEdgeStyle;rounded=0;orthogonalLoop=1;jettySize=auto;html=1;strokeWidth=4;" parent="1" source="d8pbvXpJQmF01_iz9o_H-37" edge="1">
          <mxGeometry relative="1" as="geometry">
            <mxPoint x="-1060" y="1204" as="targetPoint" />
          </mxGeometry>
        </mxCell>
        <mxCell id="d8pbvXpJQmF01_iz9o_H-37" value="&lt;span style=&quot;font-family: &amp;quot;Times New Roman&amp;quot;; font-size: 39px;&quot;&gt;Кодування&lt;/span&gt;" style="rounded=0;whiteSpace=wrap;html=1;" parent="1" vertex="1">
          <mxGeometry x="-1250" y="974" width="380" height="150" as="geometry" />
        </mxCell>
        <mxCell id="d8pbvXpJQmF01_iz9o_H-49" value="" style="edgeStyle=orthogonalEdgeStyle;rounded=0;orthogonalLoop=1;jettySize=auto;html=1;strokeWidth=4;" parent="1" source="d8pbvXpJQmF01_iz9o_H-38" target="d8pbvXpJQmF01_iz9o_H-31" edge="1">
          <mxGeometry relative="1" as="geometry" />
        </mxCell>
        <mxCell id="d8pbvXpJQmF01_iz9o_H-38" value="&lt;font style=&quot;font-size: 36px;&quot; face=&quot;Times New Roman&quot;&gt;Тестування&lt;/font&gt;" style="rhombus;whiteSpace=wrap;html=1;" parent="1" vertex="1">
          <mxGeometry x="-1220" y="1204" width="320" height="220" as="geometry" />
        </mxCell>
        <mxCell id="d8pbvXpJQmF01_iz9o_H-39" style="edgeStyle=orthogonalEdgeStyle;rounded=0;orthogonalLoop=1;jettySize=auto;html=1;strokeWidth=4;" parent="1" source="d8pbvXpJQmF01_iz9o_H-40" target="d8pbvXpJQmF01_iz9o_H-43" edge="1">
          <mxGeometry relative="1" as="geometry" />
        </mxCell>
        <mxCell id="d8pbvXpJQmF01_iz9o_H-40" value="&lt;font face=&quot;Times New Roman&quot; style=&quot;font-size: 39px;&quot;&gt;Третій інкремент&lt;/font&gt;" style="rounded=0;whiteSpace=wrap;html=1;" parent="1" vertex="1">
          <mxGeometry x="-592" y="284" width="380" height="150" as="geometry" />
        </mxCell>
        <mxCell id="d8pbvXpJQmF01_iz9o_H-41" value="&lt;span style=&quot;font-family: &amp;quot;Times New Roman&amp;quot;; font-size: 39px;&quot;&gt;Експлуатація&lt;/span&gt;" style="rounded=0;whiteSpace=wrap;html=1;" parent="1" vertex="1">
          <mxGeometry x="-592" y="1504" width="380" height="150" as="geometry" />
        </mxCell>
        <mxCell id="d8pbvXpJQmF01_iz9o_H-42" style="edgeStyle=orthogonalEdgeStyle;rounded=0;orthogonalLoop=1;jettySize=auto;html=1;strokeWidth=4;fillColor=#f8cecc;strokeColor=#b85450;" parent="1" source="d8pbvXpJQmF01_iz9o_H-43" edge="1">
          <mxGeometry relative="1" as="geometry">
            <mxPoint x="-402" y="744" as="targetPoint" />
          </mxGeometry>
        </mxCell>
        <mxCell id="d8pbvXpJQmF01_iz9o_H-43" value="&lt;font style=&quot;font-size: 39px;&quot; face=&quot;Times New Roman&quot;&gt;Аналіз&lt;/font&gt;" style="rounded=0;whiteSpace=wrap;html=1;" parent="1" vertex="1">
          <mxGeometry x="-592" y="514" width="380" height="150" as="geometry" />
        </mxCell>
        <mxCell id="d8pbvXpJQmF01_iz9o_H-44" style="edgeStyle=orthogonalEdgeStyle;rounded=0;orthogonalLoop=1;jettySize=auto;html=1;strokeWidth=4;" parent="1" source="d8pbvXpJQmF01_iz9o_H-45" target="d8pbvXpJQmF01_iz9o_H-47" edge="1">
          <mxGeometry relative="1" as="geometry" />
        </mxCell>
        <mxCell id="d8pbvXpJQmF01_iz9o_H-51" value="" style="edgeStyle=orthogonalEdgeStyle;rounded=0;orthogonalLoop=1;jettySize=auto;html=1;" parent="1" source="d8pbvXpJQmF01_iz9o_H-45" target="d8pbvXpJQmF01_iz9o_H-50" edge="1">
          <mxGeometry relative="1" as="geometry" />
        </mxCell>
        <mxCell id="d8pbvXpJQmF01_iz9o_H-45" value="&lt;font face=&quot;Times New Roman&quot; style=&quot;font-size: 39px;&quot;&gt;Проєктування&lt;/font&gt;" style="rounded=0;whiteSpace=wrap;html=1;" parent="1" vertex="1">
          <mxGeometry x="-592" y="744" width="380" height="150" as="geometry" />
        </mxCell>
        <mxCell id="d8pbvXpJQmF01_iz9o_H-46" style="edgeStyle=orthogonalEdgeStyle;rounded=0;orthogonalLoop=1;jettySize=auto;html=1;strokeWidth=4;" parent="1" source="d8pbvXpJQmF01_iz9o_H-47" edge="1">
          <mxGeometry relative="1" as="geometry">
            <mxPoint x="-402" y="1204" as="targetPoint" />
          </mxGeometry>
        </mxCell>
        <mxCell id="d8pbvXpJQmF01_iz9o_H-47" value="&lt;span style=&quot;font-family: &amp;quot;Times New Roman&amp;quot;; font-size: 39px;&quot;&gt;Кодування&lt;/span&gt;" style="rounded=0;whiteSpace=wrap;html=1;" parent="1" vertex="1">
          <mxGeometry x="-592" y="974" width="380" height="150" as="geometry" />
        </mxCell>
        <mxCell id="d8pbvXpJQmF01_iz9o_H-52" value="" style="edgeStyle=orthogonalEdgeStyle;rounded=0;orthogonalLoop=1;jettySize=auto;html=1;strokeWidth=4;" parent="1" source="d8pbvXpJQmF01_iz9o_H-48" target="d8pbvXpJQmF01_iz9o_H-41" edge="1">
          <mxGeometry relative="1" as="geometry" />
        </mxCell>
        <mxCell id="d8pbvXpJQmF01_iz9o_H-48" value="&lt;font style=&quot;font-size: 36px;&quot; face=&quot;Times New Roman&quot;&gt;Тестування&lt;/font&gt;" style="rhombus;whiteSpace=wrap;html=1;" parent="1" vertex="1">
          <mxGeometry x="-562" y="1204" width="320" height="220" as="geometry" />
        </mxCell>
        <mxCell id="d8pbvXpJQmF01_iz9o_H-50" value="&lt;font face=&quot;Times New Roman&quot; style=&quot;font-size: 39px;&quot;&gt;Проєктування&lt;/font&gt;" style="rounded=0;whiteSpace=wrap;html=1;" parent="1" vertex="1">
          <mxGeometry x="-592" y="514" width="380" height="150" as="geometry" />
        </mxCell>
        <mxCell id="d8pbvXpJQmF01_iz9o_H-57" value="&lt;font style=&quot;font-size: 33px;&quot; face=&quot;Times New Roman&quot;&gt;Невдача&lt;/font&gt;" style="text;html=1;align=center;verticalAlign=middle;resizable=0;points=[];autosize=1;strokeColor=none;fillColor=none;strokeWidth=5;" parent="1" vertex="1">
          <mxGeometry x="-2100" y="1262" width="140" height="50" as="geometry" />
        </mxCell>
        <mxCell id="5eMV0TgO5T3iDaGdaBF1-16" style="edgeStyle=orthogonalEdgeStyle;rounded=0;orthogonalLoop=1;jettySize=auto;html=1;entryX=0.5;entryY=0;entryDx=0;entryDy=0;strokeWidth=4;fillColor=#f8cecc;strokeColor=#b85450;" parent="1" source="5eMV0TgO5T3iDaGdaBF1-17" target="5eMV0TgO5T3iDaGdaBF1-20" edge="1">
          <mxGeometry relative="1" as="geometry" />
        </mxCell>
        <mxCell id="5eMV0TgO5T3iDaGdaBF1-17" value="&lt;font face=&quot;Times New Roman&quot; style=&quot;font-size: 40px;&quot;&gt;&lt;b&gt;Формування вимог&lt;/b&gt;&lt;/font&gt;" style="rounded=0;whiteSpace=wrap;html=1;" parent="1" vertex="1">
          <mxGeometry x="-1942" y="14" width="380" height="150" as="geometry" />
        </mxCell>
        <mxCell id="5eMV0TgO5T3iDaGdaBF1-18" style="edgeStyle=orthogonalEdgeStyle;rounded=0;orthogonalLoop=1;jettySize=auto;html=1;strokeWidth=4;fillColor=#f8cecc;strokeColor=#b85450;" parent="1" source="5eMV0TgO5T3iDaGdaBF1-20" target="5eMV0TgO5T3iDaGdaBF1-23" edge="1">
          <mxGeometry relative="1" as="geometry" />
        </mxCell>
        <mxCell id="5eMV0TgO5T3iDaGdaBF1-19" style="edgeStyle=orthogonalEdgeStyle;rounded=0;orthogonalLoop=1;jettySize=auto;html=1;exitX=1;exitY=0.5;exitDx=0;exitDy=0;entryX=0;entryY=0.5;entryDx=0;entryDy=0;strokeWidth=4;fillColor=#d5e8d4;strokeColor=#82b366;" parent="1" source="5eMV0TgO5T3iDaGdaBF1-20" target="5eMV0TgO5T3iDaGdaBF1-34" edge="1">
          <mxGeometry relative="1" as="geometry" />
        </mxCell>
        <mxCell id="5eMV0TgO5T3iDaGdaBF1-20" value="&lt;font face=&quot;Times New Roman&quot; style=&quot;font-size: 39px;&quot;&gt;&lt;b&gt;Перший інкремент&lt;/b&gt;&lt;/font&gt;" style="rounded=0;whiteSpace=wrap;html=1;" parent="1" vertex="1">
          <mxGeometry x="-1942" y="284" width="380" height="150" as="geometry" />
        </mxCell>
        <mxCell id="5eMV0TgO5T3iDaGdaBF1-21" value="&lt;span style=&quot;font-family: &amp;quot;Times New Roman&amp;quot;; font-size: 39px;&quot;&gt;Експлуатація&lt;/span&gt;" style="rounded=0;whiteSpace=wrap;html=1;" parent="1" vertex="1">
          <mxGeometry x="-1942" y="1504" width="380" height="150" as="geometry" />
        </mxCell>
        <mxCell id="5eMV0TgO5T3iDaGdaBF1-22" style="edgeStyle=orthogonalEdgeStyle;rounded=0;orthogonalLoop=1;jettySize=auto;html=1;strokeWidth=4;fillColor=#f8cecc;strokeColor=#b85450;" parent="1" source="5eMV0TgO5T3iDaGdaBF1-23" edge="1">
          <mxGeometry relative="1" as="geometry">
            <mxPoint x="-1752" y="744" as="targetPoint" />
          </mxGeometry>
        </mxCell>
        <mxCell id="5eMV0TgO5T3iDaGdaBF1-23" value="&lt;font style=&quot;font-size: 39px;&quot; face=&quot;Times New Roman&quot;&gt;Аналіз&lt;/font&gt;" style="rounded=0;whiteSpace=wrap;html=1;" parent="1" vertex="1">
          <mxGeometry x="-1942" y="514" width="380" height="150" as="geometry" />
        </mxCell>
        <mxCell id="5eMV0TgO5T3iDaGdaBF1-24" style="edgeStyle=orthogonalEdgeStyle;rounded=0;orthogonalLoop=1;jettySize=auto;html=1;strokeWidth=4;fillColor=#f8cecc;strokeColor=#b85450;" parent="1" source="5eMV0TgO5T3iDaGdaBF1-25" target="5eMV0TgO5T3iDaGdaBF1-27" edge="1">
          <mxGeometry relative="1" as="geometry" />
        </mxCell>
        <mxCell id="5eMV0TgO5T3iDaGdaBF1-25" value="&lt;font face=&quot;Times New Roman&quot; style=&quot;font-size: 39px;&quot;&gt;Проєктування&lt;/font&gt;" style="rounded=0;whiteSpace=wrap;html=1;" parent="1" vertex="1">
          <mxGeometry x="-1942" y="744" width="380" height="150" as="geometry" />
        </mxCell>
        <mxCell id="5eMV0TgO5T3iDaGdaBF1-26" style="edgeStyle=orthogonalEdgeStyle;rounded=0;orthogonalLoop=1;jettySize=auto;html=1;strokeWidth=4;fillColor=#f8cecc;strokeColor=#b85450;" parent="1" source="5eMV0TgO5T3iDaGdaBF1-27" edge="1">
          <mxGeometry relative="1" as="geometry">
            <mxPoint x="-1752" y="1204" as="targetPoint" />
          </mxGeometry>
        </mxCell>
        <mxCell id="5eMV0TgO5T3iDaGdaBF1-27" value="&lt;span style=&quot;font-family: &amp;quot;Times New Roman&amp;quot;; font-size: 39px;&quot;&gt;Кодування&lt;/span&gt;" style="rounded=0;whiteSpace=wrap;html=1;" parent="1" vertex="1">
          <mxGeometry x="-1942" y="974" width="380" height="150" as="geometry" />
        </mxCell>
        <mxCell id="5eMV0TgO5T3iDaGdaBF1-28" style="edgeStyle=orthogonalEdgeStyle;rounded=0;orthogonalLoop=1;jettySize=auto;html=1;entryX=0;entryY=0.5;entryDx=0;entryDy=0;strokeWidth=4;fillColor=#f8cecc;strokeColor=#b85450;" parent="1" source="5eMV0TgO5T3iDaGdaBF1-31" target="5eMV0TgO5T3iDaGdaBF1-27" edge="1">
          <mxGeometry relative="1" as="geometry">
            <Array as="points">
              <mxPoint x="-2150" y="1314" />
              <mxPoint x="-2150" y="1049" />
            </Array>
          </mxGeometry>
        </mxCell>
        <mxCell id="5eMV0TgO5T3iDaGdaBF1-29" style="edgeStyle=orthogonalEdgeStyle;rounded=0;orthogonalLoop=1;jettySize=auto;html=1;entryX=1;entryY=0.5;entryDx=0;entryDy=0;strokeWidth=4;fillColor=#f8cecc;strokeColor=#b85450;" parent="1" source="5eMV0TgO5T3iDaGdaBF1-31" target="5eMV0TgO5T3iDaGdaBF1-21" edge="1">
          <mxGeometry relative="1" as="geometry">
            <Array as="points">
              <mxPoint x="-1440" y="1314" />
              <mxPoint x="-1440" y="1579" />
            </Array>
          </mxGeometry>
        </mxCell>
        <mxCell id="5eMV0TgO5T3iDaGdaBF1-30" value="&lt;font face=&quot;Times New Roman&quot; style=&quot;font-size: 31px;&quot;&gt;Успіх&lt;/font&gt;" style="edgeLabel;html=1;align=center;verticalAlign=middle;resizable=0;points=[];labelBackgroundColor=none;fontSize=31;" parent="5eMV0TgO5T3iDaGdaBF1-29" vertex="1" connectable="0">
          <mxGeometry x="-0.6755" y="18" relative="1" as="geometry">
            <mxPoint x="1" y="-9" as="offset" />
          </mxGeometry>
        </mxCell>
        <mxCell id="5eMV0TgO5T3iDaGdaBF1-31" value="&lt;font style=&quot;font-size: 36px;&quot; face=&quot;Times New Roman&quot;&gt;Тестування&lt;/font&gt;" style="rhombus;whiteSpace=wrap;html=1;" parent="1" vertex="1">
          <mxGeometry x="-1912" y="1204" width="320" height="220" as="geometry" />
        </mxCell>
        <mxCell id="5eMV0TgO5T3iDaGdaBF1-32" style="edgeStyle=orthogonalEdgeStyle;rounded=0;orthogonalLoop=1;jettySize=auto;html=1;strokeWidth=4;" parent="1" source="5eMV0TgO5T3iDaGdaBF1-34" target="5eMV0TgO5T3iDaGdaBF1-37" edge="1">
          <mxGeometry relative="1" as="geometry" />
        </mxCell>
        <mxCell id="5eMV0TgO5T3iDaGdaBF1-33" style="edgeStyle=orthogonalEdgeStyle;rounded=0;orthogonalLoop=1;jettySize=auto;html=1;exitX=1;exitY=0.5;exitDx=0;exitDy=0;entryX=0;entryY=0.5;entryDx=0;entryDy=0;strokeWidth=4;fillColor=#d5e8d4;strokeColor=#82b366;" parent="1" source="5eMV0TgO5T3iDaGdaBF1-34" target="5eMV0TgO5T3iDaGdaBF1-45" edge="1">
          <mxGeometry relative="1" as="geometry" />
        </mxCell>
        <mxCell id="5eMV0TgO5T3iDaGdaBF1-34" value="&lt;font face=&quot;Times New Roman&quot; style=&quot;font-size: 39px;&quot;&gt;Другий інкремент&lt;/font&gt;" style="rounded=0;whiteSpace=wrap;html=1;" parent="1" vertex="1">
          <mxGeometry x="-1250" y="284" width="380" height="150" as="geometry" />
        </mxCell>
        <mxCell id="5eMV0TgO5T3iDaGdaBF1-35" value="&lt;span style=&quot;font-family: &amp;quot;Times New Roman&amp;quot;; font-size: 39px;&quot;&gt;Експлуатація&lt;/span&gt;" style="rounded=0;whiteSpace=wrap;html=1;" parent="1" vertex="1">
          <mxGeometry x="-1250" y="1504" width="380" height="150" as="geometry" />
        </mxCell>
        <mxCell id="5eMV0TgO5T3iDaGdaBF1-36" style="edgeStyle=orthogonalEdgeStyle;rounded=0;orthogonalLoop=1;jettySize=auto;html=1;strokeWidth=4;" parent="1" source="5eMV0TgO5T3iDaGdaBF1-37" edge="1">
          <mxGeometry relative="1" as="geometry">
            <mxPoint x="-1060" y="744" as="targetPoint" />
          </mxGeometry>
        </mxCell>
        <mxCell id="5eMV0TgO5T3iDaGdaBF1-37" value="&lt;font style=&quot;font-size: 39px;&quot; face=&quot;Times New Roman&quot;&gt;Аналіз&lt;/font&gt;" style="rounded=0;whiteSpace=wrap;html=1;" parent="1" vertex="1">
          <mxGeometry x="-1250" y="514" width="380" height="150" as="geometry" />
        </mxCell>
        <mxCell id="5eMV0TgO5T3iDaGdaBF1-38" style="edgeStyle=orthogonalEdgeStyle;rounded=0;orthogonalLoop=1;jettySize=auto;html=1;strokeWidth=4;" parent="1" source="5eMV0TgO5T3iDaGdaBF1-39" target="5eMV0TgO5T3iDaGdaBF1-41" edge="1">
          <mxGeometry relative="1" as="geometry" />
        </mxCell>
        <mxCell id="5eMV0TgO5T3iDaGdaBF1-39" value="&lt;font face=&quot;Times New Roman&quot; style=&quot;font-size: 39px;&quot;&gt;Проєктування&lt;/font&gt;" style="rounded=0;whiteSpace=wrap;html=1;" parent="1" vertex="1">
          <mxGeometry x="-1250" y="744" width="380" height="150" as="geometry" />
        </mxCell>
        <mxCell id="5eMV0TgO5T3iDaGdaBF1-40" style="edgeStyle=orthogonalEdgeStyle;rounded=0;orthogonalLoop=1;jettySize=auto;html=1;strokeWidth=4;" parent="1" source="5eMV0TgO5T3iDaGdaBF1-41" edge="1">
          <mxGeometry relative="1" as="geometry">
            <mxPoint x="-1060" y="1204" as="targetPoint" />
          </mxGeometry>
        </mxCell>
        <mxCell id="5eMV0TgO5T3iDaGdaBF1-41" value="&lt;span style=&quot;font-family: &amp;quot;Times New Roman&amp;quot;; font-size: 39px;&quot;&gt;Кодування&lt;/span&gt;" style="rounded=0;whiteSpace=wrap;html=1;" parent="1" vertex="1">
          <mxGeometry x="-1250" y="974" width="380" height="150" as="geometry" />
        </mxCell>
        <mxCell id="5eMV0TgO5T3iDaGdaBF1-42" value="" style="edgeStyle=orthogonalEdgeStyle;rounded=0;orthogonalLoop=1;jettySize=auto;html=1;strokeWidth=4;" parent="1" source="5eMV0TgO5T3iDaGdaBF1-43" target="5eMV0TgO5T3iDaGdaBF1-35" edge="1">
          <mxGeometry relative="1" as="geometry" />
        </mxCell>
        <mxCell id="5eMV0TgO5T3iDaGdaBF1-43" value="&lt;font style=&quot;font-size: 36px;&quot; face=&quot;Times New Roman&quot;&gt;Тестування&lt;/font&gt;" style="rhombus;whiteSpace=wrap;html=1;" parent="1" vertex="1">
          <mxGeometry x="-1220" y="1204" width="320" height="220" as="geometry" />
        </mxCell>
        <mxCell id="5eMV0TgO5T3iDaGdaBF1-44" style="edgeStyle=orthogonalEdgeStyle;rounded=0;orthogonalLoop=1;jettySize=auto;html=1;strokeWidth=4;" parent="1" source="5eMV0TgO5T3iDaGdaBF1-45" target="5eMV0TgO5T3iDaGdaBF1-48" edge="1">
          <mxGeometry relative="1" as="geometry" />
        </mxCell>
        <mxCell id="5eMV0TgO5T3iDaGdaBF1-45" value="&lt;font face=&quot;Times New Roman&quot; style=&quot;font-size: 39px;&quot;&gt;Третій інкремент&lt;/font&gt;" style="rounded=0;whiteSpace=wrap;html=1;" parent="1" vertex="1">
          <mxGeometry x="-592" y="284" width="380" height="150" as="geometry" />
        </mxCell>
        <mxCell id="5eMV0TgO5T3iDaGdaBF1-46" value="&lt;span style=&quot;font-family: &amp;quot;Times New Roman&amp;quot;; font-size: 39px;&quot;&gt;Експлуатація&lt;/span&gt;" style="rounded=0;whiteSpace=wrap;html=1;" parent="1" vertex="1">
          <mxGeometry x="-592" y="1504" width="380" height="150" as="geometry" />
        </mxCell>
        <mxCell id="5eMV0TgO5T3iDaGdaBF1-47" style="edgeStyle=orthogonalEdgeStyle;rounded=0;orthogonalLoop=1;jettySize=auto;html=1;strokeWidth=4;fillColor=#f8cecc;strokeColor=#b85450;" parent="1" source="5eMV0TgO5T3iDaGdaBF1-48" edge="1">
          <mxGeometry relative="1" as="geometry">
            <mxPoint x="-402" y="744" as="targetPoint" />
          </mxGeometry>
        </mxCell>
        <mxCell id="5eMV0TgO5T3iDaGdaBF1-48" value="&lt;font style=&quot;font-size: 39px;&quot; face=&quot;Times New Roman&quot;&gt;Аналіз&lt;/font&gt;" style="rounded=0;whiteSpace=wrap;html=1;" parent="1" vertex="1">
          <mxGeometry x="-592" y="514" width="380" height="150" as="geometry" />
        </mxCell>
        <mxCell id="5eMV0TgO5T3iDaGdaBF1-49" style="edgeStyle=orthogonalEdgeStyle;rounded=0;orthogonalLoop=1;jettySize=auto;html=1;strokeWidth=4;" parent="1" source="5eMV0TgO5T3iDaGdaBF1-51" target="5eMV0TgO5T3iDaGdaBF1-53" edge="1">
          <mxGeometry relative="1" as="geometry" />
        </mxCell>
        <mxCell id="5eMV0TgO5T3iDaGdaBF1-50" value="" style="edgeStyle=orthogonalEdgeStyle;rounded=0;orthogonalLoop=1;jettySize=auto;html=1;" parent="1" source="5eMV0TgO5T3iDaGdaBF1-51" target="5eMV0TgO5T3iDaGdaBF1-56" edge="1">
          <mxGeometry relative="1" as="geometry" />
        </mxCell>
        <mxCell id="5eMV0TgO5T3iDaGdaBF1-51" value="&lt;font face=&quot;Times New Roman&quot; style=&quot;font-size: 39px;&quot;&gt;Проєктування&lt;/font&gt;" style="rounded=0;whiteSpace=wrap;html=1;" parent="1" vertex="1">
          <mxGeometry x="-592" y="744" width="380" height="150" as="geometry" />
        </mxCell>
        <mxCell id="5eMV0TgO5T3iDaGdaBF1-52" style="edgeStyle=orthogonalEdgeStyle;rounded=0;orthogonalLoop=1;jettySize=auto;html=1;strokeWidth=4;" parent="1" source="5eMV0TgO5T3iDaGdaBF1-53" edge="1">
          <mxGeometry relative="1" as="geometry">
            <mxPoint x="-402" y="1204" as="targetPoint" />
          </mxGeometry>
        </mxCell>
        <mxCell id="5eMV0TgO5T3iDaGdaBF1-53" value="&lt;span style=&quot;font-family: &amp;quot;Times New Roman&amp;quot;; font-size: 39px;&quot;&gt;Кодування&lt;/span&gt;" style="rounded=0;whiteSpace=wrap;html=1;" parent="1" vertex="1">
          <mxGeometry x="-592" y="974" width="380" height="150" as="geometry" />
        </mxCell>
        <mxCell id="5eMV0TgO5T3iDaGdaBF1-54" value="" style="edgeStyle=orthogonalEdgeStyle;rounded=0;orthogonalLoop=1;jettySize=auto;html=1;strokeWidth=4;" parent="1" source="5eMV0TgO5T3iDaGdaBF1-55" target="5eMV0TgO5T3iDaGdaBF1-46" edge="1">
          <mxGeometry relative="1" as="geometry" />
        </mxCell>
        <mxCell id="5eMV0TgO5T3iDaGdaBF1-55" value="&lt;font style=&quot;font-size: 36px;&quot; face=&quot;Times New Roman&quot;&gt;Тестування&lt;/font&gt;" style="rhombus;whiteSpace=wrap;html=1;" parent="1" vertex="1">
          <mxGeometry x="-562" y="1204" width="320" height="220" as="geometry" />
        </mxCell>
        <mxCell id="5eMV0TgO5T3iDaGdaBF1-56" value="&lt;font face=&quot;Times New Roman&quot; style=&quot;font-size: 39px;&quot;&gt;Проєктування&lt;/font&gt;" style="rounded=0;whiteSpace=wrap;html=1;" parent="1" vertex="1">
          <mxGeometry x="-592" y="514" width="380" height="150" as="geometry" />
        </mxCell>
        <mxCell id="5eMV0TgO5T3iDaGdaBF1-57" value="&lt;font style=&quot;font-size: 33px;&quot; face=&quot;Times New Roman&quot;&gt;Невдача&lt;/font&gt;" style="text;html=1;align=center;verticalAlign=middle;resizable=0;points=[];autosize=1;strokeColor=none;fillColor=none;strokeWidth=5;" parent="1" vertex="1">
          <mxGeometry x="-2100" y="1262" width="140" height="50" as="geometry" />
        </mxCell>
      </root>
    </mxGraphModel>
  </diagram>
</mxfile>
